<?xml version="1.0" encoding="UTF-8" standalone="no"?>
<!-- Created with Inkscape (http://www.inkscape.org/) -->

<svg
   version="1.1"
   id="svg1"
   width="3000"
   height="710"
   viewBox="0 0 2999.9997 709.99999"
   xmlns="http://www.w3.org/2000/svg"
   xmlns:svg="http://www.w3.org/2000/svg">
  <defs
     id="defs1" />
  <g
     id="g1"
     transform="scale(2.7192387,2.7145578)">
    <path
       style="fill:#204884;fill-opacity:1"
       d="m 773.16673,232.07948 -1.5,-0.29307 V 127.23744 c 0,-94.720003 0.0991,-104.587024 1.05452,-104.953639 0.57999,-0.222563 21.75397,-0.40466 47.0533,-0.40466 37.93805,0 47.40857,0.183411 54.04384,1.046638 12.22559,1.590507 19.76212,3.753725 29.18168,8.376047 7.90616,3.879669 8.7129,4.469175 15.73784,11.499971 6.34759,6.352891 7.79516,8.219531 10.14144,13.077341 1.50529,3.11667 3.55919,8.36667 4.56419,11.66667 1.7837,5.85682 1.8278,6.40567 1.851,23 0.023,16.412212 -0.037,17.207452 -1.7248,23.000002 -6.87547,23.59212 -24.77161,38.37354 -53.02567,43.79682 -6.25381,1.2004 -10.48395,1.4234 -31.87734,1.68045 -14.5875,0.17527 -24.93907,0.56039 -25.33333,0.94249 -0.41978,0.40683 -0.79011,13.90431 -1,36.44651 l -0.33333,35.8004 -23.66667,0.08 c -13.01667,0.044 -24.34167,-0.0519 -25.16667,-0.21303 z m 88.64885,-111.17336 c 7.56179,-1.60252 15.75778,-7.58916 18.91223,-13.81416 1.73606,-3.42595 3.13605,-12.380322 2.96976,-18.994632 -0.21257,-8.45533 -4.43524,-17.48703 -10.15417,-21.71835 -4.46754,-3.30544 -8.57381,-4.48392 -18.21,-5.22619 -7.66326,-0.5903 -27.92204,-0.27319 -29.10112,0.45551 -0.94194,0.58215 -0.71352,58.522872 0.23445,59.470842 1.20813,1.20813 29.4847,1.06972 35.34885,-0.17302 z m 97.68446,111.18014 c -0.6416,-0.16769 -1.1967,-0.80788 -1.2335,-1.42267 -0.037,-0.61478 -0.1118,-47.54278 -0.1667,-104.28445 l -0.1,-103.166666 h 23.3971 l 23.39696,1e-6 0.4374,14.5 c 0.2405,7.975 0.4512,25.900003 0.4683,39.833333 0.031,25.292282 0.2655,30.333332 1.4118,30.333332 0.3343,0 2.621,-1.89045 5.0815,-4.201 9.2383,-8.675382 20.0987,-14.730102 28.3425,-15.801152 11.5922,-1.50609 26.5138,-0.34007 33.8492,2.64507 15.7799,6.42169 24.0176,17.954842 27.6089,38.653912 1.2626,7.2773 1.3843,13.87039 1.173,63.54537 l -0.1667,39.17554 -22.5,-0.17554 -22.5,-0.17553 -0.3333,-47.66667 c -0.3293,-47.0916 -0.3507,-47.70427 -1.7739,-50.78378 -3.022,-6.53893 -10.0732,-12.30494 -17.3223,-14.1651 -5.4724,-1.40424 -8.5005,-1.32503 -13.4674,0.35232 -9.7083,3.27856 -16.1921,11.35641 -18.5369,23.09439 -0.8434,4.2217 -1.0929,12.95654 -1.3614,47.66884 l -0.3288,42.5 -22.10466,-0.0773 c -12.1575,-0.0425 -22.6296,-0.21454 -23.2713,-0.38222 z M 0.14615599,100.04588 C 0.31172699,39.060978 0.12447599,41.372523 5.8302831,29.879141 8.2234981,25.058421 9.7897091,23.067873 16.321733,16.545226 22.908991,9.967422 24.805184,8.485268 29.66667,6.114194 40.66077,0.752082 41.23938,0.69424 87.57263,0.325525 L 128.4786,0 l 6.09404,4.145142 c 19.6139,13.34128 25.09405,17.228009 25.09405,17.797637 0,0.349817 -0.675,0.898744 -1.5,1.219838 -0.825,0.321094 -6.47633,4.005319 -12.55851,8.187167 -6.08218,4.181847 -12.23218,8.336708 -13.66667,9.233025 l -2.60816,1.629666 -39.00001,0.333333 -39,0.333333 c -4.889138,-0.110069 -10.211716,1.83931 -10,9.114047 l -0.18318,50.061232 c -0.12848,35.11337 -0.40168,50.32451 -0.91496,50.94297 -0.57673,0.69492 -4.91707,0.88177 -20.483494,0.88183 L 0,153.87929 Z"
       id="path10" />
    <path
       style="fill:#ce1126;fill-opacity:1"
       d="m 455.61286,261.55273 c -1.32187,-0.71766 -9.06887,-8.63135 -15.73737,-15.23534 l -12.5527,-12.17852 c -4.78077,0.33766 -9.464,1.49458 -14.23712,2.05724 -6.48646,0.76463 -18.16508,1.96651 -18.74659,1.02561 -0.40394,-0.6536 -0.57014,-0.64929 -0.79342,0.0206 -0.22758,0.68272 -2.47752,0.6927 -11.58071,0.0513 -17.62188,-1.24154 -29.88693,-4.50373 -44.63158,-11.87088 -9.61258,-4.80291 -14.82593,-8.61631 -23.01475,-16.83457 -11.63957,-11.68142 -18.72995,-23.26899 -23.90241,-39.06293 -11.23666,-34.31076 -7.84085,-74.156882 8.74323,-102.592292 18.90394,-32.413075 51.09635,-49.000677 95.17393,-49.039725 23.0574,-0.02043 41.81363,3.840864 57.79359,11.897801 9.05931,4.567614 15.39589,9.20405 23.29808,17.047054 13.07994,12.98198 21.82765,28.48726 26.08375,50.70772 3.3378,17.426172 3.27578,28.258972 3.20243,30.787772 -0.0749,2.58227 0.89497,15.81237 -6.26667,40.8789 -3.53902,12.38695 -12.26179,27.37976 -20.83987,36.77097 -2.89922,3.17404 -5.2713,6.0552 -5.2713,6.40258 0,0.6743 7.73692,8.344 14.33333,14.2088 13.35494,11.87374 15.85373,14.67897 25.5114,23.58961 2.69222,2.48397 10.3888,9.80087 11.52405,11.19129 0.12264,0.15021 -12.96702,-0.0627 -26.46757,0.0891 -13.50056,0.15176 -28.21474,0.0165 -32.76551,0.0191 -3.62321,0.002 -8.85622,0.0688 -8.85622,0.0688 z m -50.45572,-65.62094 c 13.50254,-2.91632 17.49605,-4.51102 23.01161,-9.189 9.569,-8.11588 15.39018,-19.82261 18.85662,-38.76422 0.58544,-3.199 1.48741,-9.19244 1.24445,-22.58104 -0.26006,-14.33027 -2.84071,-25.29323 -3.80859,-28.133232 -8.11882,-23.82253 -21.43666,-37.48274 -41.00292,-39.44093 -2.6546,-0.26567 -10.97217,-0.77646 -17.06093,-0.0156 -5.07948,0.63474 -7.73968,1.47707 -11.50638,2.7128 -3.82832,1.21974 -11.07281,6.08018 -14.5937,9.79114 -12.76275,13.4517 -18.64772,31.699122 -18.61839,57.729692 0.0405,35.91857 11.12901,58.76812 31.7658,65.45811 8.28428,2.68557 24.70755,3.9452 31.71243,2.43226 z m -296.33713,44.9915 c -2.94704,-1.49198 -21.54016,-14.1045 -25.39808,-17.22863 l -1.9114,-1.54784 6.24474,-4.25449 c 3.4346,-2.33997 8.94474,-6.04052 12.24475,-8.22343 3.3,-2.18292 6.82067,-4.53441 7.8237,-5.22552 3.87113,-2.66731 4.58795,-2.71566 42.50963,-2.86717 39.7734,-0.15891 44.1672,0.35841 47.68974,-2.94312 3.35361,-3.14321 2.60338,-9.7349 2.70592,-14.42061 0.0804,-3.67563 0.0717,-26.12179 1e-5,-49.90027 l -0.13034,-43.233612 1.57741,-0.59973 c 0.86757,-0.32985 9.95787,-0.59973 20.20067,-0.59973 h 18.62327 l 0.16666,43.833342 c 0.23466,61.71493 0.26933,59.70332 -1.14043,66.16666 -2.21827,10.17011 -9.64584,23.39323 -16.35957,29.12455 -8.19262,6.99381 -18.54767,12.02945 -26.66667,12.96795 -2.75,0.31788 -23.03201,0.55807 -45.07114,0.53376 l -40.07114,-0.0442 z m 442.68004,-9.55643 c -11.49973,-0.13569 -15.15624,-0.37747 -15.12353,-1 0.0237,-0.45158 -0.0833,-47.51238 -0.23783,-104.57956 l -0.28098,-103.758521 21.73784,-0.502275 c 40.43348,-0.934257 79.09925,0.202955 92.4045,2.717741 16.318,3.084215 26.39904,7.682323 34.32152,15.654548 5.96198,5.999404 9.40685,11.613495 11.85111,19.313685 1.7312,5.45383 2.75735,13.33918 2.63477,20.33333 -0.14075,8.03138 -0.9355,14.83878 -2.68905,19.96048 -2.50951,7.329742 -6.07117,13.437502 -10.13075,17.372852 -4.96844,4.81641 -12.07669,9.63157 -22.14471,14.32586 -2.06329,0.96202 -13.50955,5.87288 -13.50955,6.22332 0,0.7331 1.23833,1.78456 5,4.24548 8.31712,5.44112 18.70276,17.03297 28.13456,31.40217 2.81706,4.29175 6.78922,10.05283 8.82702,12.80241 2.0378,2.74958 6.75828,9.34958 10.48995,14.66667 3.73168,5.31708 9.88168,13.96366 13.66667,19.21462 3.78499,5.25096 7.24615,10.05481 7.69147,10.67522 0.75717,1.0549 -0.90667,1.11879 -25.66667,0.98553 -14.56199,-0.0784 -27.4589,-0.15722 -28.65981,-0.17522 -2.34453,-0.0351 -1.54147,1.07624 -22.50576,-31.14608 -20.31478,-31.22402 -28.39765,-41.54747 -35.97744,-45.95039 -3.20364,-1.86092 -3.66311,-1.93625 -11.80952,-1.93625 -7.19076,0 -8.65351,0.17731 -9.64542,1.16923 -1.08679,1.08679 -1.17073,3.86021 -1.19048,39.33333 -0.0137,24.63761 -0.25753,38.34246 -0.68791,38.66734 -0.36667,0.27678 -5.31667,0.42678 -11,0.33333 -5.68333,-0.0934 -17.15834,-0.25043 -25.5,-0.34885 z m 70.68088,-117.20611 c 5.81525,-1.30145 9.11726,-3.15024 13.99923,-7.83815 6.77313,-6.503902 8.92324,-11.292782 8.86869,-19.752992 -0.0676,-10.47809 -4.77214,-19.04335 -12.43935,-22.64736 -6.42839,-3.0217 -9.69993,-3.412 -27.00617,-3.22186 l -16.26995,0.17875 -0.19197,25 c -0.10558,13.75 -0.019,25.964282 0.19241,27.142842 l 0.38437,2.14283 6.47426,0.1905 c 10.5454,0.31029 21.51801,-0.19407 25.98848,-1.19456 z"
       id="path11" />
    <circle
       style="fill:#fcd116;fill-opacity:1"
       id="path12"
       cx="120.07402"
       cy="122.2458"
       r="57.5" />
  </g>
</svg>
